name Visual3d_SIMM_grf.mot
datacolumns 19
datarows 41
range 0.760000 1.160000
endheader
time	ground_force_vx	ground_force_vy	ground_force_vz	ground_force_px	ground_force_py	ground_force_pz	l_ground_force_vx	l_ground_force_vy	l_ground_force_vz	l_ground_force_px	l_ground_force_py	l_ground_force_pz	ground_torque_x	ground_torque_y	ground_torque_z	l_ground_torque_x	l_ground_torque_y	l_ground_torque_z
0.760000	-6.549723	199.322601	20.079124	0.251972	-0.002549	0.320376	0.000000	0.000000	0.000000	0.000000	0.000000	0.000000	-0.000552	-0.079752	0.001419	0.000000	0.000000	0.000000
0.770000	-6.793566	218.081284	22.228874	0.251355	-0.003173	0.319832	0.000000	0.000000	0.000000	0.000000	0.000000	0.000000	-0.000248	-0.035773	0.000636	0.000000	0.000000	0.000000
0.780000	-6.870276	234.411270	23.852280	0.250641	-0.003580	0.319348	0.000000	0.000000	0.000000	0.000000	0.000000	0.000000	0.000051	0.007325	-0.000130	0.000000	0.000000	0.000000
0.790000	-6.956590	248.635025	24.637358	0.249869	-0.003785	0.318866	0.000000	0.000000	0.000000	0.000000	0.000000	0.000000	0.000242	0.035007	-0.000623	0.000000	0.000000	0.000000
0.800000	-7.205673	261.052246	24.484406	0.249067	-0.003838	0.318359	0.000000	0.000000	0.000000	0.000000	0.000000	0.000000	0.000259	0.037376	-0.000665	0.000000	0.000000	0.000000
0.810000	-7.669677	271.820038	23.466484	0.248256	-0.003794	0.317823	0.000000	0.000000	0.000000	0.000000	0.000000	0.000000	0.000088	0.012667	-0.000225	0.000000	0.000000	0.000000
0.820000	-8.277849	280.937500	21.745359	0.247461	-0.003703	0.317266	0.000000	0.000000	0.000000	0.000000	0.000000	0.000000	-0.000226	-0.032618	0.000580	0.000000	0.000000	0.000000
0.830000	-8.890066	288.347900	19.551874	0.246706	-0.003598	0.316701	0.000000	0.000000	0.000000	0.000000	0.000000	0.000000	-0.000597	-0.086175	0.001533	0.000000	0.000000	0.000000
0.840000	-9.360327	294.021301	17.120405	0.246013	-0.003500	0.316140	0.000000	0.000000	0.000000	0.000000	0.000000	0.000000	-0.000932	-0.134509	0.002393	0.000000	0.000000	0.000000
0.850000	-9.590538	298.014587	14.625289	0.245388	-0.003419	0.315592	0.000000	0.000000	0.000000	0.000000	0.000000	0.000000	-0.001159	-0.167300	0.002976	0.000000	0.000000	0.000000
0.860000	-9.555501	300.493286	12.152346	0.244827	-0.003357	0.315062	0.000000	0.000000	0.000000	0.000000	0.000000	0.000000	-0.001248	-0.180139	0.003204	0.000000	0.000000	0.000000
0.870000	-9.298210	301.732086	9.713758	0.244317	-0.003312	0.314555	0.000000	0.000000	0.000000	0.000000	0.000000	0.000000	-0.001209	-0.174591	0.003106	0.000000	0.000000	0.000000
0.880000	-8.904840	302.054291	7.279510	0.243848	-0.003279	0.314077	0.000000	0.000000	0.000000	0.000000	0.000000	0.000000	-0.001083	-0.156347	0.002781	0.000000	0.000000	0.000000
0.890000	-8.469911	301.770294	4.817259	0.243415	-0.003256	0.313634	0.000000	0.000000	0.000000	0.000000	0.000000	0.000000	-0.000920	-0.132796	0.002362	0.000000	0.000000	0.000000
0.900000	-8.070953	301.124390	2.313091	0.243018	-0.003243	0.313232	0.000000	0.000000	0.000000	0.000000	0.000000	0.000000	-0.000771	-0.111290	0.001980	0.000000	0.000000	0.000000
0.910000	-7.756540	300.278748	-0.228319	0.242657	-0.003236	0.312866	0.000000	0.000000	0.000000	0.000000	0.000000	0.000000	-0.000671	-0.096924	0.001724	0.000000	0.000000	0.000000
0.920000	-7.544417	299.314667	-2.792931	0.242330	-0.003235	0.312533	0.000000	0.000000	0.000000	0.000000	0.000000	0.000000	-0.000631	-0.091087	0.001620	0.000000	0.000000	0.000000
0.930000	-7.426049	298.264313	-5.362675	0.242030	-0.003237	0.312223	0.000000	0.000000	0.000000	0.000000	0.000000	0.000000	-0.000634	-0.091567	0.001629	0.000000	0.000000	0.000000
0.940000	-7.370857	297.126740	-7.928653	0.241746	-0.003241	0.311927	0.000000	0.000000	0.000000	0.000000	0.000000	0.000000	-0.000651	-0.093977	0.001672	0.000000	0.000000	0.000000
0.950000	-7.331448	295.898163	-10.499079	0.241456	-0.003246	0.311634	0.000000	0.000000	0.000000	0.000000	0.000000	0.000000	-0.000648	-0.093545	0.001664	0.000000	0.000000	0.000000
0.960000	-7.251069	294.566833	-13.097308	0.241134	-0.003250	0.311341	0.000000	0.000000	0.000000	0.000000	0.000000	0.000000	-0.000593	-0.085599	0.001523	0.000000	0.000000	0.000000
0.970000	-7.074683	293.108459	-15.750843	0.240764	-0.003251	0.311046	0.000000	0.000000	0.000000	0.000000	0.000000	0.000000	-0.000469	-0.067701	0.001204	0.000000	0.000000	0.000000
0.980000	-6.762638	291.474731	-18.478256	0.240341	-0.003247	0.310753	0.000000	0.000000	0.000000	0.000000	0.000000	0.000000	-0.000275	-0.039661	0.000706	0.000000	0.000000	0.000000
0.990000	-6.297039	289.594238	-21.285824	0.239876	-0.003236	0.310472	0.000000	0.000000	0.000000	0.000000	0.000000	0.000000	-0.000023	-0.003322	0.000059	0.000000	0.000000	0.000000
1.000000	-5.680115	287.374451	-24.160570	0.239382	-0.003218	0.310204	0.000000	0.000000	0.000000	0.000000	0.000000	0.000000	0.000262	0.037815	-0.000673	0.000000	0.000000	0.000000
1.010000	-4.931864	284.713806	-27.069481	0.238876	-0.003194	0.309953	0.000000	0.000000	0.000000	0.000000	0.000000	0.000000	0.000548	0.079142	-0.001408	0.000000	0.000000	0.000000
1.020000	-4.080003	281.515717	-29.968401	0.238367	-0.003167	0.309719	0.000000	0.000000	0.000000	0.000000	0.000000	0.000000	0.000802	0.115823	-0.002060	0.000000	0.000000	0.000000
1.030000	-3.154339	277.699097	-32.810619	0.237863	-0.003142	0.309495	0.000000	0.000000	0.000000	0.000000	0.000000	0.000000	0.000997	0.143902	-0.002560	0.000000	0.000000	0.000000
1.040000	-2.184299	273.186554	-35.542549	0.237370	-0.003126	0.309271	0.000000	0.000000	0.000000	0.000000	0.000000	0.000000	0.001114	0.160870	-0.002862	0.000000	0.000000	0.000000
1.050000	-1.198543	267.888458	-38.087425	0.236893	-0.003125	0.309029	0.000000	0.000000	0.000000	0.000000	0.000000	0.000000	0.001148	0.165707	-0.002948	0.000000	0.000000	0.000000
1.060000	-0.228539	261.660797	-40.340942	0.236443	-0.003139	0.308752	0.000000	0.000000	0.000000	0.000000	0.000000	0.000000	0.001094	0.157998	-0.002811	0.000000	0.000000	0.000000
1.070000	0.685323	254.300629	-42.165817	0.236036	-0.003167	0.308426	0.000000	0.000000	0.000000	0.000000	0.000000	0.000000	0.000967	0.139561	-0.002483	0.000000	0.000000	0.000000
1.080000	1.494272	245.553528	-43.389553	0.235692	-0.003204	0.308042	0.000000	0.000000	0.000000	0.000000	0.000000	0.000000	0.000785	0.113362	-0.002017	0.000000	0.000000	0.000000
1.090000	2.147727	235.157547	-43.820034	0.235425	-0.003242	0.307596	0.000000	0.000000	0.000000	0.000000	0.000000	0.000000	0.000572	0.082613	-0.001470	0.000000	0.000000	0.000000
1.100000	2.602237	222.904556	-43.275326	0.235247	-0.003265	0.307084	0.000000	0.000000	0.000000	0.000000	0.000000	0.000000	0.000348	0.050189	-0.000893	0.000000	0.000000	0.000000
1.110000	2.835494	208.703903	-41.607086	0.235154	-0.003243	0.306493	0.000000	0.000000	0.000000	0.000000	0.000000	0.000000	0.000136	0.019586	-0.000348	0.000000	0.000000	0.000000
1.120000	2.852875	192.620911	-38.714523	0.235134	-0.003134	0.305803	-1.299292	25.694038	13.544973	0.244864	-0.005746	-0.171596	-0.000036	-0.005238	0.000093	0.000047	-0.003571	-0.000068
1.130000	2.685867	174.905289	-34.557865	0.235175	-0.002873	0.304981	-1.806366	46.205452	19.296398	0.247373	-0.006266	-0.172786	-0.000146	-0.021102	0.000375	-0.000616	0.046600	0.000894
1.140000	2.382277	155.965134	-29.185152	0.235268	-0.002381	0.303980	-2.498215	72.555840	25.048119	0.248047	-0.006886	-0.174945	-0.000178	-0.025728	0.000458	-0.001201	0.090867	0.001743
1.150000	1.995363	136.326050	-22.760441	0.235387	-0.001569	0.302743	-3.512724	103.599617	30.231060	0.248237	-0.007310	-0.179210	-0.000123	-0.017715	0.000315	-0.001600	0.121124	0.002323
1.160000	1.573954	116.574768	-15.585916	0.235491	-0.000357	0.301189	-4.776339	137.438065	35.222660	0.248538	-0.007317	-0.186647	0.000022	0.003189	-0.000057	-0.001727	0.130714	0.002507
